PathFileType	4	(X/Y/Z)	C:\Users\Basilio\Documents\Thesis Gigler\squatting_fais\c3dfiles\041\SLS_pre_front5\markers_experimental.trc
DataRate	CameraRate	NumFrames	NumMarkers	Units	OrigDataRate	OrigDataStartFrame	OrigNumFrames
200.000000	200.000000	4	62	mm	200.000000	644	1289
Frame#	Time	FHD			LBHD			RBHD			C7			T10			CLAV			LSHO			LUUPA			LMUPA			LDUPA			LLEP			LMEP			LRAD			LUL			LRFIN			RSHO			RUPA1			RMUPA			RDUPA			RLEP			RMEP			RRAD			RUL			RUFIN			LASI			RASI			USACR			LSACR			RSACR			LTHI1			LTHI2			LTHI3			LTHI4			LLFC			LMFC			LTIB1			LTIB2			LTIB3			LTIB4			LLMAL			LMMAL			LHEE			LMT1			LMT2			LMT5			RTHI			RTHI2			RTHI3			RTHI4			RLFC			RMFC			RTIB1			RTIB2			RTIB3			RTIB4			RLMAL			RMMAL			RHEE			RMT1			RMT2			RMT5			*61			
		X1	Y1	Z1	X2	Y2	Z2	X3	Y3	Z3	X4	Y4	Z4	X5	Y5	Z5	X6	Y6	Z6	X7	Y7	Z7	X8	Y8	Z8	X9	Y9	Z9	X10	Y10	Z10	X11	Y11	Z11	X12	Y12	Z12	X13	Y13	Z13	X14	Y14	Z14	X15	Y15	Z15	X16	Y16	Z16	X17	Y17	Z17	X18	Y18	Z18	X19	Y19	Z19	X20	Y20	Z20	X21	Y21	Z21	X22	Y22	Z22	X23	Y23	Z23	X24	Y24	Z24	X25	Y25	Z25	X26	Y26	Z26	X27	Y27	Z27	X28	Y28	Z28	X29	Y29	Z29	X30	Y30	Z30	X31	Y31	Z31	X32	Y32	Z32	X33	Y33	Z33	X34	Y34	Z34	X35	Y35	Z35	X36	Y36	Z36	X37	Y37	Z37	X38	Y38	Z38	X39	Y39	Z39	X40	Y40	Z40	X41	Y41	Z41	X42	Y42	Z42	X43	Y43	Z43	X44	Y44	Z44	X45	Y45	Z45	X46	Y46	Z46	X47	Y47	Z47	X48	Y48	Z48	X49	Y49	Z49	X50	Y50	Z50	X51	Y51	Z51	X52	Y52	Z52	X53	Y53	Z53	X54	Y54	Z54	X55	Y55	Z55	X56	Y56	Z56	X57	Y57	Z57	X58	Y58	Z58	X59	Y59	Z59	X60	Y60	Z60	X61	Y61	Z61	X62	Y62	Z62	

645	3.22	-180.7200164794922	1582.330078125	-1102.371704101563	-355.0432128906251	1504.614624023438	-1172.873291015625	-332.4175720214844	1511.31884765625	-1020.917358398438	-393.6479797363282	1385.678588867188	-1101.807739257813	-511.9595336914064	1102.660522460938	-1061.431518554688	-247.7647399902344	1301.8564453125	-1109.526611328125	-331.4282226562501	1386.86474609375	-1236.547607421875	-264.3265075683594	1384.460693359375	-1388.632568359375	-218.0692443847657	1397.554321289063	-1383.13720703125	-221.1016693115235	1386.326171875	-1443.111694335938	-185.8550415039063	1384.563720703125	-1473.588745117188	-134.4077911376953	1317.122924804688	-1453.754516601563	58.22098541259767	1431.951293945313	-1590.779174804688	15.13199138641358	1423.866577148438	-1649.8251953125	101.0612258911133	1482.8525390625	-1628.291015625	-299.9159851074219	1407.605712890625	-994.2756347656252	-162.7797241210938	1417.22021484375	-871.507019042969	-143.5548095703125	1439.548706054688	-912.677673339844	-96.18420410156253	1441.0869140625	-875.6090087890627	-52.1218948364258	1447.339477539063	-874.884704589844	-26.861967086792	1366.676635742188	-890.8379516601565	215.9701538085938	1462.3251953125	-921.0302734375002	207.4483947753907	1483.626953125	-849.9006347656252	296.2146606445313	1486.618896484375	-922.7854003906252	-381.9407958984376	894.6309814453127	-1161.002685546875	-387.1307678222657	897.1135253906252	-936.4831542968752	-557.0801391601564	976.8356933593752	-1052.238037109375	-574.0819702148439	951.5230712890627	-1080.022094726563	-578.8775634765626	950.970886230469	-1026.173950195313	-398.2867736816407	700.0659790039064	-1224.644165039063	-320.6322021484376	664.1007690429689	-1221.219970703125	-285.2108764648438	695.0700683593751	-1212.793334960938	-307.9791259765626	604.5435180664064	-1208.968139648438	-193.5664520263672	480.048309326172	-1180.277221679688	-185.7960510253907	479.2745361328126	-1064.361572265625	-221.5352325439454	304.8069152832032	-1096.120971679688	-282.6013488769532	272.0725708007813	-1154.156860351563	-249.844223022461	259.7820739746094	-1126.561401367188	-281.5137634277344	196.9909667968751	-1081.26171875	-375.4251708984376	128.2149963378907	-1111.691772460938	-336.2177734375001	139.3451080322266	-1029.383666992188	-447.355194091797	116.8073959350586	-1063.181884765625	-240.7002868652344	62.97352600097658	-1040.814331054688	-236.7890014648438	55.65058898925783	-1084.26904296875	-285.0473327636719	42.70145797729493	-1138.800048828125	-345.0690612792969	667.2093505859376	-874.019714355469	-279.2888488769532	665.4909667968751	-872.890808105469	-260.2725219726563	692.6503295898439	-876.9793701171877	-232.9105987548829	596.9000244140626	-895.1187744140627	-131.2088165283203	525.7987060546876	-902.8748168945315	-103.1962280273438	539.2354125976564	-1019.452758789063	14.039701461792	436.5747680664064	-916.1917724609377	11.17488479614258	323.2800903320313	-911.1030883789065	45.69235992431641	355.2791748046876	-908.7971801757815	96.57017517089847	340.7835693359376	-936.381774902344	147.43017578125	215.4711608886719	-931.7852783203127	152.7953491210938	259.1800842285157	-1008.80078125	142.2186126708985	148.6167907714844	-989.5015869140627	281.0320739746094	315.8894042968751	-981.542175292969	278.4247741699219	316.2928161621094	-928.974792480469	269.3858642578126	263.4215087890626	-888.1192016601565	-4216.980957031251	853.041198730469	-3944.649169921876	
646	3.225	-180.4967346191407	1581.555541992188	-1102.455688476563	-354.7987060546876	1503.860595703125	-1173.063842773438	-332.0318603515626	1510.550048828125	-1021.4345703125	-393.3648376464845	1385.002807617188	-1101.950317382813	-511.8778381347657	1102.11279296875	-1061.330810546875	-247.6295928955079	1301.08349609375	-1109.560913085938	-331.0340576171876	1386.16650390625	-1236.592407226563	-263.9002685546876	1383.8984375	-1388.59912109375	-217.6763000488282	1397.049560546875	-1383.051879882813	-220.4566802978516	1385.686157226563	-1442.999877929688	-185.3279571533203	1383.892944335938	-1473.476196289063	-133.9579772949219	1316.498291015625	-1453.51416015625	58.69470977783205	1431.128051757813	-1590.512329101563	15.74049472808838	1423.3701171875	-1649.513061523438	101.7264480590821	1482.468627929688	-1628.07958984375	-299.5604248046876	1406.8076171875	-994.459167480469	-162.5420989990235	1416.593505859375	-871.6380615234377	-143.330795288086	1438.867553710938	-912.8935546875002	-95.79853820800783	1440.373779296875	-875.7879638671877	-51.70954513549806	1446.630615234375	-875.0288085937502	-26.50328826904298	1366.052856445313	-891.034851074219	216.1527099609376	1461.753662109375	-920.9971313476565	207.7782135009766	1482.812255859375	-849.895446777344	296.4684143066407	1485.979370117188	-922.610290527344	-382.0919189453126	894.1641845703127	-1160.971069335938	-387.149871826172	896.515808105469	-936.387878417969	-557.2139892578126	976.3544921875002	-1052.10791015625	-574.2228393554689	951.0960693359377	-1079.920776367188	-578.5562744140626	950.5119628906252	-1025.674926757813	-398.3867492675782	699.6525878906251	-1224.580810546875	-320.6357421875001	663.8371582031251	-1221.212890625	-285.2740783691407	694.8402709960939	-1212.841186523438	-307.8949890136719	604.2412109375001	-1209.037475585938	-193.3938751220704	479.9824523925782	-1180.342529296875	-185.4459533691407	479.1772460937501	-1064.449462890625	-221.4621124267579	304.7896728515626	-1096.164306640625	-282.5349731445313	272.0768127441407	-1154.256591796875	-249.6450958251954	259.7196655273438	-1126.588500976563	-281.4465332031251	196.9620208740235	-1081.343872070313	-375.4339599609376	128.2346496582032	-1111.6904296875	-336.1877746582032	139.3663940429688	-1029.411254882813	-447.3641662597657	116.8152847290039	-1063.171264648438	-240.6596679687501	63.0101776123047	-1040.822265625	-236.7886505126954	55.65974807739259	-1084.213989257813	-285.0766906738282	42.68432235717774	-1138.776000976563	-345.4682617187501	666.5173339843751	-874.074890136719	-279.4394531250001	664.6898193359376	-872.8912353515627	-260.4384765625001	692.0231933593751	-877.0169677734377	-233.1614685058594	596.3791503906251	-895.216247558594	-131.5264739990235	525.2151489257814	-902.9858398437502	-103.4218368530274	538.5960693359376	-1019.614379882813	13.69786834716797	436.0700988769532	-916.272399902344	11.05765914916992	322.7784729003907	-911.2770996093752	45.51597213745118	354.6771545410157	-909.021667480469	96.52456665039065	340.1255798339844	-936.518005371094	147.2556457519532	215.0455474853516	-932.0117187500002	152.5374603271485	258.6604003906251	-1008.9755859375	141.7988433837891	148.8584442138672	-989.1531372070315	281.0305175781251	315.3380126953126	-981.763854980469	278.2384033203126	315.9152526855469	-929.0941162109377	269.1547546386719	263.1389465332032	-888.1904907226565	-4216.792480468751	853.0594482421877	-3944.707031250001	
647	3.23	-180.1253967285157	1580.634033203125	-1102.47021484375	-354.4285888671876	1503.033081054688	-1173.267700195313	-331.7048645019532	1509.74365234375	-1022.008911132813	-392.9176330566407	1384.203369140625	-1102.125122070313	-511.8459472656251	1101.571533203125	-1061.28759765625	-247.301010131836	1300.285034179688	-1109.814086914063	-330.7001342773438	1385.40087890625	-1236.64501953125	-263.8616333007813	1383.439086914063	-1388.444458007813	-217.4234008789063	1396.54345703125	-1382.96240234375	-219.8992004394532	1385.095947265625	-1442.881103515625	-184.6436309814453	1383.340087890625	-1473.2744140625	-133.3870849609375	1315.978271484375	-1453.273193359375	59.42452239990236	1430.769287109375	-1590.244262695313	16.24292755126953	1422.80078125	-1649.151489257813	102.3840255737305	1482.05908203125	-1627.778198242188	-299.1942138671876	1406.110229492188	-994.581726074219	-162.3924865722657	1416.039672851563	-871.7888183593752	-142.4716796875	1438.099731445313	-913.1555175781252	-95.78247833251955	1439.8125	-875.762634277344	-51.05773544311525	1445.934204101563	-875.2415161132815	-26.31109809875489	1365.685913085938	-891.1638183593752	216.499008178711	1460.894775390625	-920.8873291015627	207.9477844238282	1482.250732421875	-849.8481445312502	296.9623107910157	1485.27734375	-922.549987792969	-382.3171997070313	893.503601074219	-1160.846923828125	-387.2868957519532	896.0557250976565	-936.4263916015627	-557.3057250976564	975.878112792969	-1051.967163085938	-574.3355712890626	950.507751464844	-1079.762939453125	-578.5827636718751	950.0017700195315	-1025.592895507813	-398.3931884765626	699.2058715820314	-1224.591552734375	-320.6664733886719	663.5440063476564	-1221.214233398438	-285.3128356933594	694.5705566406251	-1212.829223632813	-307.8544311523438	603.8875732421876	-1209.107299804688	-193.1583099365235	479.8738708496095	-1180.488647460938	-185.1217956542969	479.0658569335939	-1064.565673828125	-221.1927490234376	304.7499694824219	-1096.354248046875	-282.4643249511719	272.0542907714844	-1154.335083007813	-249.415267944336	259.4788208007813	-1126.737548828125	-281.3831176757813	196.9188995361329	-1081.366333007813	-375.3703613281251	128.2551879882813	-1111.742431640625	-336.1644287109376	139.4132537841797	-1029.465576171875	-447.3309936523439	116.7846221923828	-1063.166625976563	-240.6777038574219	63.03751754760744	-1040.850952148438	-236.8455352783204	55.61771392822267	-1084.261962890625	-285.0526733398438	42.64876937866212	-1138.80419921875	-345.5089416503907	666.1376342773439	-874.0744628906252	-279.8752136230469	663.9652099609376	-872.8421020507815	-260.5996398925782	691.4183959960939	-876.9939575195315	-233.4574279785157	595.6477050781251	-895.175476074219	-131.8208312988282	524.6574707031251	-903.1170654296877	-103.6958923339844	538.0419921875001	-1019.655700683594	13.32020664215088	435.5479125976564	-916.2651977539065	11.11326503753662	322.4462890625001	-911.1062622070315	45.36840438842774	354.0273742675782	-909.1540527343752	96.26937103271487	339.5028381347657	-936.6099853515627	147.0758361816407	214.5563659667969	-932.157165527344	152.5129852294922	258.2814025878907	-1009.175537109375	142.0636444091797	148.0327453613282	-989.6111450195315	280.2540283203126	314.9385986328126	-982.1945800781252	277.9563293457032	315.4520263671876	-929.3406982421877	269.0064697265626	262.7132568359376	-888.2633056640627	-4217.099121093751	853.1666259765627	-3944.717773437501	
648	3.235	-179.8732147216797	1579.976440429688	-1102.666748046875	-354.0665283203126	1502.102172851563	-1173.571411132813	-331.4996948242188	1508.956787109375	-1021.726501464844	-392.5396728515626	1383.513793945313	-1102.313720703125	-511.8000793457032	1101.063232421875	-1061.224243164063	-247.0512084960938	1299.377075195313	-1109.906860351563	-330.3883666992188	1384.752319335938	-1236.715576171875	-263.4064025878907	1382.843994140625	-1388.44580078125	-217.0365600585938	1395.90087890625	-1382.744873046875	-219.3062438964844	1384.521850585938	-1442.702758789063	-184.2381744384766	1382.661499023438	-1473.073120117188	-132.8644256591797	1315.40673828125	-1453.05419921875	59.79274749755861	1430.279296875	-1589.647705078125	17.24882888793946	1422.12158203125	-1648.808837890625	102.9590530395508	1481.703491210938	-1627.3916015625	-298.9048461914063	1405.394897460938	-994.7186279296877	-161.8417205810547	1415.40625	-871.8394775390627	-142.3972320556641	1437.417236328125	-913.309997558594	-95.49086761474611	1439.130493164063	-875.922790527344	-50.93621826171876	1445.475708007813	-875.2807617187502	-25.42600631713868	1364.274780273438	-891.3875122070315	216.8914184570313	1460.203247070313	-920.8335571289065	208.3029479980469	1481.575439453125	-849.7100219726565	297.2547912597657	1484.75927734375	-922.5120239257815	-382.5929565429688	892.8519287109377	-1160.602661132813	-387.5301208496095	895.201110839844	-936.1226196289065	-557.3551025390626	975.3262329101565	-1051.890502929688	-574.5204467773439	949.9709472656252	-1079.628784179688	-578.6651000976564	949.5404052734377	-1025.580444335938	-398.3880004882814	698.7236938476564	-1224.546020507813	-320.6569824218751	663.2946777343751	-1221.26025390625	-285.3276367187501	694.2973632812501	-1212.857421875	-307.8485107421876	603.6329345703126	-1209.131591796875	-192.920883178711	479.8338317871095	-1180.615234375	-184.6910247802735	478.8775329589845	-1064.69140625	-220.9267730712891	304.6615295410157	-1096.552001953125	-282.3565979003907	271.9645385742188	-1154.453491210938	-249.3629913330079	259.3876342773438	-1126.824951171875	-281.2674255371094	196.8849029541016	-1081.4912109375	-375.2772827148438	128.2586822509766	-1111.785400390625	-336.0740051269532	139.4445953369141	-1029.51123046875	-447.3999938964845	116.8517990112305	-1063.17529296875	-240.6677398681641	63.03721237182619	-1040.85498046875	-236.7440490722657	55.59758758544923	-1084.28564453125	-285.0555114746094	42.62104034423829	-1138.819458007813	-345.6633605957032	665.1908569335939	-874.116394042969	-279.9998168945313	663.4486083984376	-872.723083496094	-260.7997741699219	690.7327270507814	-877.032653808594	-233.5203704833985	594.9644775390626	-895.3035278320315	-132.0911865234375	524.1260986328126	-903.0075683593752	-103.9258728027344	537.4729003906251	-1019.736450195313	13.12323474884034	434.8622436523439	-916.3278808593752	10.99775409698487	321.7362060546876	-911.2270507812502	45.2291374206543	353.5424194335938	-909.318542480469	96.22333526611331	339.0895996093751	-936.8001708984377	146.9648895263672	214.1243286132813	-932.4201660156252	152.353271484375	258.2317504882813	-1009.276611328125	142.0472869873047	147.7566528320313	-990.0674438476565	280.4872741699219	314.5256347656251	-982.003845214844	278.3223876953126	314.8007202148438	-929.0054321289065	268.8555603027344	262.1419677734376	-888.4024047851565	-4216.801269531251	853.1351318359377	-3944.639892578126	
